<svg xmlns="http://www.w3.org/2000/svg" viewBox="0 0 512 512" style="enable-background:new 0 0 512 512" xml:space="preserve"><path fill="#fff" d="m502.625 105.375-96-96c-12.5-12.5-32.75-12.5-45.25 0l-36.688 36.688 141.25 141.25 36.688-36.688c12.5-12.5 12.5-32.75 0-45.25zM.953 472.234a32.015 32.015 0 0 0 8.422 30.391 32.001 32.001 0 0 0 30.391 8.422l102.922-25.734-116-116L.953 472.234zM361.375 129l-59.313-59.313S38.749 333.083 36.999 335l59 59.375L361.375 129zM118.625 416 178 475c1.938-1.875 265.313-265.063 265.313-265.063L384 150.625 118.625 416z"/></svg>