<svg xmlns="http://www.w3.org/2000/svg" viewBox="0 0 212.715 212.715" style="enable-background:new 0 0 212.715 212.715" xml:space="preserve"><path stroke="#dd382d" path="#dd382d" fill="#dd382d" d="M211.436 187.771 112.843 17.002a7.5 7.5 0 0 0-12.99 0L1.005 188.213a7.499 7.499 0 0 0 6.495 11.25h197.715c4.143 0 7.5-3.357 7.5-7.5a7.473 7.473 0 0 0-1.279-4.192zM20.49 184.463l85.857-148.711 85.857 148.711H20.49z"/><path fill="#dd382d" stroke="#dd382d" path="#dd382d" d="M98.848 76.58v63.879c0 4.143 3.357 7.5 7.5 7.5s7.5-3.357 7.5-7.5V76.58c0-4.143-3.357-7.5-7.5-7.5s-7.5 3.358-7.5 7.5z"/><circle fill="#dd382d" stroke="#dd382d" path="#dd382d" cx="106.348" cy="164.007" r="9.328"/></svg>